<svg width="113" height="113" viewBox="0 0 113 113" fill="none" xmlns="http://www.w3.org/2000/svg">
<path d="M5.38095 0C2.42143 0 0 2.42143 0 5.38095V107.619C0 110.579 2.42143 113 5.38095 113H107.619C110.579 113 113 110.579 113 107.619V5.38095C113 2.42143 110.579 0 107.619 0H5.38095ZM39.2274 26.9048C44.5814 26.9048 49.1298 28.197 52.17 31.1296C54.9143 33.8739 56.3634 38.0992 56.3634 43.1842C56.3634 48.5114 55.0757 52.117 52.8426 55.0497C49.7486 59.3544 44.3142 61.5026 39.1485 61.5026C38.0454 61.5026 37.1849 61.5045 36.2163 61.4238V86.0952H29.5952V28.0346C32.2588 27.335 35.3531 26.9048 39.2274 26.9048ZM40.3046 31.3188C38.7441 31.3188 37.4504 31.4807 36.5894 31.7497V54.913C37.3697 54.9938 38.1505 55.0759 39.2536 55.0759C45.7108 55.0759 50.0944 50.7695 50.0944 42.5904C50.0944 36.6445 47.7034 31.3188 40.3046 31.3188ZM74.5556 43.0476C77.9725 43.0476 80.4461 44.099 82.2487 45.2021L80.4463 50.231C78.7513 49.101 76.9745 48.3235 74.6607 48.3235C71.0017 48.3235 69.1169 50.9017 69.1169 53.6729C69.1169 56.4441 70.1937 58.0851 74.4715 60.8563C79.4758 63.9772 83.4048 67.8515 83.4048 73.636C83.4048 82.0303 77.5137 86.0952 70.357 86.0952C67.2361 86.0952 63.7643 85.1525 61.881 83.6728L63.5783 78.6702C65.1118 79.6118 67.775 80.8194 70.5462 80.8194C74.3936 80.8194 76.894 78.4787 76.894 74.7658C76.894 71.5641 75.7356 69.3342 71.3502 66.563C65.7271 63.0116 62.6902 59.3803 62.6902 54.645C62.6902 47.8112 67.8563 43.0476 74.5556 43.0476Z" fill="#F0EBD8"/>
</svg>
